<?xml version="1.0" encoding="UTF-8" standalone="no"?>
<!-- Created with Inkscape (http://www.inkscape.org/) -->

<svg
   xmlns:dc="http://purl.org/dc/elements/1.1/"
   xmlns:cc="http://creativecommons.org/ns#"
   xmlns:rdf="http://www.w3.org/1999/02/22-rdf-syntax-ns#"
   xmlns:svg="http://www.w3.org/2000/svg"
   xmlns="http://www.w3.org/2000/svg"
   xmlns:sodipodi="http://sodipodi.sourceforge.net/DTD/sodipodi-0.dtd"
   xmlns:inkscape="http://www.inkscape.org/namespaces/inkscape"
   width="10cm"
   height="10cm"
   viewBox="0 0 354.33071 354.3307"
   id="svg2"
   version="1.1"
   inkscape:version="0.91 r13725"
   sodipodi:docname="AutoScrolling.svg">
  <defs
     id="defs4" />
  <sodipodi:namedview
     id="base"
     pagecolor="#ffffff"
     bordercolor="#666666"
     borderopacity="1.0"
     inkscape:pageopacity="0.0"
     inkscape:pageshadow="2"
     inkscape:zoom="1.4"
     inkscape:cx="165.9006"
     inkscape:cy="214.30368"
     inkscape:document-units="px"
     inkscape:current-layer="g4211"
     showgrid="true"
     units="cm"
     inkscape:snap-bbox="true"
     inkscape:bbox-paths="true"
     inkscape:snap-page="false"
     inkscape:bbox-nodes="true"
     inkscape:snap-bbox-edge-midpoints="true"
     inkscape:snap-bbox-midpoints="true"
     inkscape:window-width="1515"
     inkscape:window-height="1018"
     inkscape:window-x="777"
     inkscape:window-y="33"
     inkscape:window-maximized="0"
     inkscape:snap-object-midpoints="true"
     inkscape:snap-center="true"
     inkscape:snap-to-guides="false"
     inkscape:object-paths="true"
     inkscape:snap-intersection-paths="true"
     inkscape:object-nodes="true"
     inkscape:snap-smooth-nodes="true"
     inkscape:snap-midpoints="false"
     inkscape:snap-grids="true"
     showguides="false">
    <inkscape:grid
       type="xygrid"
       id="grid4686" />
  </sodipodi:namedview>
  <metadata
     id="metadata7">
    <rdf:RDF>
      <cc:Work
         rdf:about="">
        <dc:format>image/svg+xml</dc:format>
        <dc:type
           rdf:resource="http://purl.org/dc/dcmitype/StillImage" />
        <dc:title />
      </cc:Work>
    </rdf:RDF>
  </metadata>
  <g
     inkscape:label="Layer 1"
     inkscape:groupmode="layer"
     id="layer1"
     transform="translate(0,-698.03155)">
    <g
       id="g4138"
       transform="matrix(0.69959977,0,0,0.79690303,104.32296,177.74986)">
      <g
         id="g4148"
         transform="matrix(1.9058515,0,0,1.6731437,-248.46243,-634.58484)">
        <g
           id="g4211"
           transform="matrix(0.72983196,0,0,0.72983196,48.943133,293.23627)">
          <path
             style="opacity:1;fill:#f2f2f2;fill-opacity:1;stroke:none;stroke-width:3;stroke-miterlimit:4;stroke-dasharray:none;stroke-opacity:1"
             d="m 186.42287,734.1026 c -20.47052,30.60501 -43.82826,60.25416 -63.93007,90.91433 l -0.0382,0.0548 0.006,0 c -0.40054,0.73291 -0.60831,1.52534 -0.61016,2.32638 0,0.0344 0.005,0.0677 0.006,0.10201 l -0.006,0 0,14.22315 0.006,0 c -7.5e-4,0.0343 -0.006,0.0676 -0.006,0.10201 0.003,0.96731 0.30577,1.91785 0.88112,2.76638 l -0.008,0 63.69925,90.52762 c 20.4705,-30.60501 43.82623,-60.25416 63.92806,-90.91433 l 0.0401,-0.0548 -0.008,0 c 0.40054,-0.73291 0.6083,-1.52382 0.61016,-2.32486 0,-0.0344 -0.005,-0.0677 -0.006,-0.10201 l 0.006,0 0,-14.22315 -0.006,0 c 7.3e-4,-0.0343 0.006,-0.0676 0.006,-0.10201 -0.003,-0.9673 -0.30577,-1.91937 -0.88112,-2.7679 l 0.008,0 -63.69724,-90.52762 z m -0.002,57.63409 35.96718,42.87502 -35.96718,42.87196 -35.9672,-42.87196 35.9672,-42.87502 z"
             id="rect4209"
             inkscape:connector-curvature="0" />
        </g>
      </g>
    </g>
  </g>
</svg>
