<?xml version="1.0" encoding="UTF-8" standalone="no"?>
<!-- Created with Inkscape (http://www.inkscape.org/) -->

<svg
   xmlns:dc="http://purl.org/dc/elements/1.1/"
   xmlns:cc="http://creativecommons.org/ns#"
   xmlns:rdf="http://www.w3.org/1999/02/22-rdf-syntax-ns#"
   xmlns:svg="http://www.w3.org/2000/svg"
   xmlns="http://www.w3.org/2000/svg"
   xmlns:sodipodi="http://sodipodi.sourceforge.net/DTD/sodipodi-0.dtd"
   xmlns:inkscape="http://www.inkscape.org/namespaces/inkscape"
   width="10cm"
   height="10cm"
   viewBox="0 0 354.33071 354.3307"
   id="svg2"
   version="1.1"
   inkscape:version="0.91 r13725"
   sodipodi:docname="AutoScrolling.svg"
   inkscape:export-filename="C:\Users\Raphael\Git\GazeTheWeb\Browse\Client\content\icons\AutoScrolling.png"
   inkscape:export-xdpi="97.535995"
   inkscape:export-ydpi="97.535995">
  <defs
     id="defs4" />
  <sodipodi:namedview
     id="base"
     pagecolor="#ffffff"
     bordercolor="#666666"
     borderopacity="1.0"
     inkscape:pageopacity="0.0"
     inkscape:pageshadow="2"
     inkscape:zoom="1.4"
     inkscape:cx="209.82917"
     inkscape:cy="138.58939"
     inkscape:document-units="px"
     inkscape:current-layer="g4211"
     showgrid="true"
     units="cm"
     inkscape:snap-bbox="true"
     inkscape:bbox-paths="true"
     inkscape:snap-page="false"
     inkscape:bbox-nodes="true"
     inkscape:snap-bbox-edge-midpoints="true"
     inkscape:snap-bbox-midpoints="true"
     inkscape:window-width="1515"
     inkscape:window-height="1018"
     inkscape:window-x="351"
     inkscape:window-y="0"
     inkscape:window-maximized="0"
     inkscape:snap-object-midpoints="true"
     inkscape:snap-center="true"
     inkscape:snap-to-guides="false"
     inkscape:object-paths="true"
     inkscape:snap-intersection-paths="true"
     inkscape:object-nodes="true"
     inkscape:snap-smooth-nodes="true"
     inkscape:snap-midpoints="false"
     inkscape:snap-grids="true"
     showguides="false">
    <inkscape:grid
       type="xygrid"
       id="grid4686" />
  </sodipodi:namedview>
  <metadata
     id="metadata7">
    <rdf:RDF>
      <cc:Work
         rdf:about="">
        <dc:format>image/svg+xml</dc:format>
        <dc:type
           rdf:resource="http://purl.org/dc/dcmitype/StillImage" />
        <dc:title />
      </cc:Work>
    </rdf:RDF>
  </metadata>
  <g
     inkscape:label="Layer 1"
     inkscape:groupmode="layer"
     id="layer1"
     transform="translate(0,-698.03155)">
    <g
       id="g4138"
       transform="matrix(0.69959977,0,0,0.79690303,104.32296,177.74986)">
      <g
         id="g4148"
         transform="matrix(1.9058515,0,0,1.6731437,-248.46243,-634.58484)">
        <g
           id="g4211"
           transform="matrix(0.72983196,0,0,0.72983196,48.943133,293.23627)">
          <path
             style="fill:#505659;fill-rule:evenodd;stroke:none;stroke-width:1.02763391px;stroke-linecap:butt;stroke-linejoin:miter;stroke-opacity:1;fill-opacity:1"
             d="m 127.67713,831.69829 51.3817,82.21071 71.93437,-82.21071 -61.65803,-71.93438 z"
             id="path4138"
             inkscape:connector-curvature="0" />
          <path
             style="opacity:1;fill:#f2f2f2;fill-opacity:1;stroke:none;stroke-width:3;stroke-miterlimit:4;stroke-dasharray:none;stroke-opacity:1"
             d="m 186.42304,718.1069 c -23.72836,35.47574 -50.80344,69.84349 -74.10441,105.38316 l -0.0443,0.0635 0.007,0 c -0.46429,0.84956 -0.70512,1.7681 -0.70727,2.69662 0,0.0399 0.006,0.0785 0.007,0.11825 l -0.007,0 0,16.48673 0.007,0 c -8.7e-4,0.0398 -0.007,0.0784 -0.007,0.11825 0.003,1.12125 0.35443,2.22307 1.02135,3.20664 l -0.009,0 73.83685,104.93491 c 23.72834,-35.47574 50.80109,-69.84349 74.10208,-105.38316 l 0.0465,-0.0635 -0.009,0 c 0.46429,-0.84956 0.70511,-1.76634 0.70727,-2.69486 0,-0.0399 -0.006,-0.0785 -0.007,-0.11825 l 0.007,0 0,-16.48673 -0.007,0 c 8.5e-4,-0.0398 0.007,-0.0784 0.007,-0.11825 -0.003,-1.12124 -0.35443,-2.22483 -1.02135,-3.2084 l 0.009,0 -73.83452,-104.93491 z m -0.002,66.80644 41.69129,49.69849 -41.69129,49.69495 -41.6913,-49.69495 41.6913,-49.69849 z"
             id="rect4209"
             inkscape:connector-curvature="0" />
        </g>
      </g>
    </g>
  </g>
</svg>
