<?xml version="1.0" encoding="UTF-8" standalone="no"?>
<!-- Created with Inkscape (http://www.inkscape.org/) -->

<svg
   xmlns:dc="http://purl.org/dc/elements/1.1/"
   xmlns:cc="http://creativecommons.org/ns#"
   xmlns:rdf="http://www.w3.org/1999/02/22-rdf-syntax-ns#"
   xmlns:svg="http://www.w3.org/2000/svg"
   xmlns="http://www.w3.org/2000/svg"
   xmlns:sodipodi="http://sodipodi.sourceforge.net/DTD/sodipodi-0.dtd"
   xmlns:inkscape="http://www.inkscape.org/namespaces/inkscape"
   width="10cm"
   height="10cm"
   viewBox="0 0 354.33071 354.3307"
   id="svg2"
   version="1.1"
   inkscape:version="0.91 r13725"
   sodipodi:docname="AutoScrolling.svg">
  <defs
     id="defs4" />
  <sodipodi:namedview
     id="base"
     pagecolor="#ffffff"
     bordercolor="#666666"
     borderopacity="1.0"
     inkscape:pageopacity="0.0"
     inkscape:pageshadow="2"
     inkscape:zoom="1.4"
     inkscape:cx="73.757743"
     inkscape:cy="170.01797"
     inkscape:document-units="px"
     inkscape:current-layer="g4211"
     showgrid="true"
     units="cm"
     inkscape:snap-bbox="true"
     inkscape:bbox-paths="true"
     inkscape:snap-page="false"
     inkscape:bbox-nodes="true"
     inkscape:snap-bbox-edge-midpoints="true"
     inkscape:snap-bbox-midpoints="true"
     inkscape:window-width="1515"
     inkscape:window-height="1018"
     inkscape:window-x="777"
     inkscape:window-y="33"
     inkscape:window-maximized="0"
     inkscape:snap-object-midpoints="true"
     inkscape:snap-center="true"
     inkscape:snap-to-guides="false"
     inkscape:object-paths="true"
     inkscape:snap-intersection-paths="true"
     inkscape:object-nodes="true"
     inkscape:snap-smooth-nodes="true"
     inkscape:snap-midpoints="false"
     inkscape:snap-grids="true"
     showguides="false">
    <inkscape:grid
       type="xygrid"
       id="grid4686" />
  </sodipodi:namedview>
  <metadata
     id="metadata7">
    <rdf:RDF>
      <cc:Work
         rdf:about="">
        <dc:format>image/svg+xml</dc:format>
        <dc:type
           rdf:resource="http://purl.org/dc/dcmitype/StillImage" />
        <dc:title></dc:title>
      </cc:Work>
    </rdf:RDF>
  </metadata>
  <g
     inkscape:label="Layer 1"
     inkscape:groupmode="layer"
     id="layer1"
     transform="translate(0,-698.03155)">
    <g
       id="g4138"
       transform="matrix(0.69959977,0,0,0.79690303,104.32296,177.74986)">
      <g
         id="g4148"
         transform="matrix(1.9058515,0,0,1.6731437,-248.46243,-634.58484)">
        <g
           id="g4211"
           transform="matrix(0.72983196,0,0,0.72983196,48.943133,293.23627)">
          <path
             style="opacity:1;fill:#f2f2f2;fill-opacity:1;stroke:none;stroke-width:3;stroke-miterlimit:4;stroke-dasharray:none;stroke-opacity:1"
             d="m 186.42319,702.1114 c -26.98617,40.3464 -57.77853,79.43269 -84.27863,119.85181 l -0.0503,0.0723 0.008,0 c -0.52803,0.96619 -0.80193,2.01084 -0.80437,3.06685 0,0.0454 0.007,0.0893 0.008,0.13447 l -0.008,0 0,18.7503 0.008,0 c -9.8e-4,0.0452 -0.008,0.0891 -0.008,0.13448 0.004,1.27519 0.4031,2.52829 1.16157,3.6469 l -0.0106,0 83.97434,119.34201 c 26.98614,-40.3464 57.77586,-79.43269 84.27598,-119.85181 l 0.0529,-0.0723 -0.0106,0 c 0.52803,-0.96619 0.80192,-2.00883 0.80437,-3.06484 0,-0.0454 -0.007,-0.0893 -0.008,-0.13448 l 0.008,0 0,-18.7503 -0.008,0 c 9.6e-4,-0.0452 0.008,-0.0891 0.008,-0.13447 -0.004,-1.27519 -0.40309,-2.5303 -1.16157,-3.64891 l 0.0106,0 -83.97169,-119.34201 z m -0.003,75.97867 47.41532,56.52188 -47.41532,56.51785 -47.41533,-56.51785 47.41533,-56.52188 z"
             id="rect4209"
             inkscape:connector-curvature="0" />
        </g>
      </g>
    </g>
  </g>
</svg>
