<?xml version="1.0" encoding="UTF-8" standalone="no"?>
<!-- Created with Inkscape (http://www.inkscape.org/) -->

<svg
   xmlns:dc="http://purl.org/dc/elements/1.1/"
   xmlns:cc="http://creativecommons.org/ns#"
   xmlns:rdf="http://www.w3.org/1999/02/22-rdf-syntax-ns#"
   xmlns:svg="http://www.w3.org/2000/svg"
   xmlns="http://www.w3.org/2000/svg"
   xmlns:sodipodi="http://sodipodi.sourceforge.net/DTD/sodipodi-0.dtd"
   xmlns:inkscape="http://www.inkscape.org/namespaces/inkscape"
   width="10cm"
   height="10cm"
   viewBox="0 0 354.33071 354.3307"
   id="svg2"
   version="1.1"
   inkscape:version="0.91 r13725"
   sodipodi:docname="AutoScrolling.svg">
  <defs
     id="defs4" />
  <sodipodi:namedview
     id="base"
     pagecolor="#ffffff"
     bordercolor="#666666"
     borderopacity="1.0"
     inkscape:pageopacity="0.0"
     inkscape:pageshadow="2"
     inkscape:zoom="1.4"
     inkscape:cx="125.9006"
     inkscape:cy="176.44654"
     inkscape:document-units="px"
     inkscape:current-layer="g4211"
     showgrid="true"
     units="cm"
     inkscape:snap-bbox="true"
     inkscape:bbox-paths="true"
     inkscape:snap-page="false"
     inkscape:bbox-nodes="true"
     inkscape:snap-bbox-edge-midpoints="true"
     inkscape:snap-bbox-midpoints="true"
     inkscape:window-width="1515"
     inkscape:window-height="1018"
     inkscape:window-x="777"
     inkscape:window-y="134"
     inkscape:window-maximized="0"
     inkscape:snap-object-midpoints="true"
     inkscape:snap-center="true"
     inkscape:snap-to-guides="false"
     inkscape:object-paths="true"
     inkscape:snap-intersection-paths="true"
     inkscape:object-nodes="true"
     inkscape:snap-smooth-nodes="true"
     inkscape:snap-midpoints="false"
     inkscape:snap-grids="true"
     showguides="false">
    <inkscape:grid
       type="xygrid"
       id="grid4686" />
  </sodipodi:namedview>
  <metadata
     id="metadata7">
    <rdf:RDF>
      <cc:Work
         rdf:about="">
        <dc:format>image/svg+xml</dc:format>
        <dc:type
           rdf:resource="http://purl.org/dc/dcmitype/StillImage" />
        <dc:title />
      </cc:Work>
    </rdf:RDF>
  </metadata>
  <g
     inkscape:label="Layer 1"
     inkscape:groupmode="layer"
     id="layer1"
     transform="translate(0,-698.03155)">
    <g
       id="g4138"
       transform="matrix(0.69959977,0,0,0.79690303,104.32296,177.74986)">
      <g
         id="g4148"
         transform="matrix(1.9058515,0,0,1.6731437,-248.46243,-634.58484)">
        <g
           id="g4211"
           transform="matrix(0.72983196,0,0,0.72983196,48.943133,293.23627)">
          <path
             style="opacity:1;fill:#f2f2f2;fill-opacity:1;stroke:none;stroke-width:3;stroke-miterlimit:4;stroke-dasharray:none;stroke-opacity:1"
             d="M 177.16602 48.228516 C 157.24596 87.489971 134.51634 125.5252 114.95508 164.85742 L 114.91797 164.92773 L 114.92383 164.92773 C 114.53406 165.86794 114.33188 166.8845 114.33008 167.91211 C 114.33008 167.95631 114.33494 167.99901 114.33594 168.04297 L 114.33008 168.04297 L 114.33008 186.28906 L 114.33594 186.28906 C 114.33522 186.33306 114.33008 186.37576 114.33008 186.41992 C 114.33308 187.66082 114.62763 188.88022 115.1875 189.96875 L 115.17969 189.96875 L 177.16602 306.10156 C 197.08605 266.84011 219.81373 228.80488 239.375 189.47266 L 239.41406 189.40234 L 239.40625 189.40234 C 239.79602 188.46214 239.99819 187.44753 240 186.41992 C 240 186.37572 239.99514 186.33302 239.99414 186.28906 L 240 186.28906 L 240 168.04297 L 239.99414 168.04297 C 239.99485 167.99897 240 167.95627 240 167.91211 C 239.997 166.67121 239.70246 165.44986 239.14258 164.36133 L 239.15039 164.36133 L 177.16602 48.228516 z M 177.16406 122.16406 L 212.16406 177.16602 L 177.16406 232.16406 L 142.16406 177.16602 L 177.16406 122.16406 z "
             transform="matrix(1.0276339,0,0,1.0276339,4.3610636,652.55014)"
             id="rect4209" />
        </g>
      </g>
    </g>
  </g>
</svg>
