<?xml version="1.0" encoding="UTF-8" standalone="no"?>
<!-- Created with Inkscape (http://www.inkscape.org/) -->

<svg
   xmlns:dc="http://purl.org/dc/elements/1.1/"
   xmlns:cc="http://creativecommons.org/ns#"
   xmlns:rdf="http://www.w3.org/1999/02/22-rdf-syntax-ns#"
   xmlns:svg="http://www.w3.org/2000/svg"
   xmlns="http://www.w3.org/2000/svg"
   xmlns:xlink="http://www.w3.org/1999/xlink"
   xmlns:sodipodi="http://sodipodi.sourceforge.net/DTD/sodipodi-0.dtd"
   xmlns:inkscape="http://www.inkscape.org/namespaces/inkscape"
   width="10cm"
   height="10cm"
   viewBox="0 0 354.33071 354.3307"
   id="svg2"
   version="1.1"
   inkscape:version="0.91 r13725"
   sodipodi:docname="Award_silver.svg"
   inkscape:export-filename="C:\Users\Raphael\Git\GazeTheWeb\Browse\Client\content\icons\Award_silver.png"
   inkscape:export-xdpi="97.535995"
   inkscape:export-ydpi="97.535995">
  <defs
     id="defs4">
    <linearGradient
       inkscape:collect="always"
       id="linearGradient4406">
      <stop
         style="stop-color:#545454;stop-opacity:1"
         offset="0"
         id="stop4408" />
      <stop
         id="stop4414"
         offset="0.48314592"
         style="stop-color:#545454;stop-opacity:1" />
      <stop
         style="stop-color:#404040;stop-opacity:1"
         offset="0.4868888"
         id="stop4416" />
      <stop
         style="stop-color:#404040;stop-opacity:1"
         offset="1"
         id="stop4410" />
    </linearGradient>
    <linearGradient
       id="linearGradient4230"
       inkscape:collect="always">
      <stop
         id="stop4232"
         offset="0"
         style="stop-color:#bfbfbf;stop-opacity:1" />
      <stop
         style="stop-color:#c6c6c6;stop-opacity:1"
         offset="0.24725293"
         id="stop4234" />
      <stop
         style="stop-color:#f1f1f1;stop-opacity:1"
         offset="0.49487102"
         id="stop4236" />
      <stop
         style="stop-color:#e3e3e3;stop-opacity:1"
         offset="0.64102805"
         id="stop4238" />
      <stop
         id="stop4240"
         offset="0.85678649"
         style="stop-color:#bfbfbf;stop-opacity:1" />
      <stop
         id="stop4242"
         offset="1"
         style="stop-color:#bfbfbf;stop-opacity:1" />
    </linearGradient>
    <inkscape:perspective
       sodipodi:type="inkscape:persp3d"
       inkscape:vp_x="60.804806 : 143.34937 : 1"
       inkscape:vp_y="0 : 1000 : 0"
       inkscape:vp_z="415.13552 : 143.34937 : 1"
       inkscape:persp3d-origin="237.97017 : 84.294245 : 1"
       id="perspective4138" />
    <linearGradient
       inkscape:collect="always"
       xlink:href="#linearGradient4230"
       id="linearGradient4202"
       x1="31.255947"
       y1="741.67328"
       x2="188.48872"
       y2="942.4505"
       gradientUnits="userSpaceOnUse" />
    <filter
       inkscape:collect="always"
       style="color-interpolation-filters:sRGB"
       id="filter4282"
       x="-0.056377384"
       width="1.1127548"
       y="-0.063855905"
       height="1.1277118">
      <feGaussianBlur
         inkscape:collect="always"
         stdDeviation="7.2415845"
         id="feGaussianBlur4284" />
    </filter>
    <linearGradient
       inkscape:collect="always"
       xlink:href="#linearGradient4406"
       id="linearGradient4412"
       x1="119.17464"
       y1="1092.4551"
       x2="272.13083"
       y2="1046.4364"
       gradientUnits="userSpaceOnUse"
       gradientTransform="matrix(0.96592583,0.22721678,-0.29481668,0.96592583,232.46384,-13.029219)" />
    <filter
       inkscape:collect="always"
       style="color-interpolation-filters:sRGB"
       id="filter4531"
       x="-0.12"
       width="1.24"
       y="-0.12"
       height="1.24">
      <feGaussianBlur
         inkscape:collect="always"
         stdDeviation="15.863582"
         id="feGaussianBlur4533" />
    </filter>
  </defs>
  <sodipodi:namedview
     id="base"
     pagecolor="#ffffff"
     bordercolor="#666666"
     borderopacity="1.0"
     inkscape:pageopacity="0.0"
     inkscape:pageshadow="2"
     inkscape:zoom="1.4"
     inkscape:cx="120.67001"
     inkscape:cy="227.54357"
     inkscape:document-units="px"
     inkscape:current-layer="g4138"
     showgrid="true"
     units="cm"
     inkscape:snap-bbox="true"
     inkscape:bbox-paths="true"
     inkscape:snap-page="false"
     inkscape:bbox-nodes="true"
     inkscape:snap-bbox-edge-midpoints="true"
     inkscape:snap-bbox-midpoints="true"
     inkscape:window-width="2560"
     inkscape:window-height="1387"
     inkscape:window-x="-8"
     inkscape:window-y="-8"
     inkscape:window-maximized="1"
     inkscape:snap-object-midpoints="true"
     inkscape:snap-center="true"
     inkscape:snap-to-guides="false"
     inkscape:object-paths="false"
     inkscape:snap-intersection-paths="false"
     inkscape:object-nodes="true"
     inkscape:snap-smooth-nodes="false"
     inkscape:snap-midpoints="false"
     inkscape:snap-grids="true"
     showguides="false">
    <inkscape:grid
       type="xygrid"
       id="grid4686" />
  </sodipodi:namedview>
  <metadata
     id="metadata7">
    <rdf:RDF>
      <cc:Work
         rdf:about="">
        <dc:format>image/svg+xml</dc:format>
        <dc:type
           rdf:resource="http://purl.org/dc/dcmitype/StillImage" />
        <dc:title />
      </cc:Work>
    </rdf:RDF>
  </metadata>
  <g
     inkscape:label="Layer 1"
     inkscape:groupmode="layer"
     id="layer1"
     transform="translate(0,-698.03155)">
    <g
       id="g4138"
       transform="matrix(0.69959977,0,0,0.79690303,104.32296,177.74986)">
      <path
         style="fill:url(#linearGradient4412);fill-opacity:1;fill-rule:evenodd;stroke:none;stroke-width:1.33928323px;stroke-linecap:butt;stroke-linejoin:miter;stroke-opacity:1"
         d="m 25.50371,1069.2799 78.61637,-28.2343 78.61637,28.2343 3e-5,-169.40584 -157.23275,0 z"
         id="path4165-2"
         inkscape:connector-curvature="0"
         sodipodi:nodetypes="cccccc" />
      <path
         inkscape:transform-center-y="12.774123"
         transform="matrix(1.1969071,0,0,1.0507627,187.90359,780.3865)"
         d="m -69.999996,199.93071 c -2.215465,0 -18.687681,13.32035 -20.884191,13.03118 -2.196511,-0.28918 -14.659893,-17.41897 -16.799863,-17.99238 -2.13998,-0.5734 -21.49847,8.02975 -23.5453,7.18192 -2.04682,-0.84782 -9.652,-20.61968 -11.57065,-21.72742 -1.91865,-1.10773 -22.84418,2.19192 -24.60183,0.84323 -1.75764,-1.34869 -3.98635,-22.41521 -5.55292,-23.98178 -1.56657,-1.56657 -22.63309,-3.79528 -23.98178,-5.55292 -1.34869,-1.75765 1.95096,-22.68318 0.84323,-24.60183 -1.10773,-1.91864 -20.8796,-9.52383 -21.72742,-11.57065 -0.84783,-2.04682 7.75532,-21.40532 7.18191,-23.545294 -0.5734,-2.139975 -17.70319,-14.603353 -17.99237,-16.799864 -0.28917,-2.196511 13.03117,-18.668726 13.03117,-20.884191 0,-2.215464 -13.32034,-18.68768 -13.03117,-20.884191 0.28918,-2.196511 17.41897,-14.659889 17.99237,-16.799863 0.57341,-2.139975 -8.02974,-21.4984732 -7.18192,-23.5452956 0.84783,-2.0468222 20.61969,-9.6520054 21.72742,-11.5706534 1.10774,-1.918649 -2.19192,-22.84418 -0.84323,-24.601826 1.34869,-1.757647 22.41522,-3.986353 23.98179,-5.552923 1.56657,-1.56657 3.79527,-22.633094 5.55292,-23.981784 1.75764,-1.348689 22.68318,1.950963 24.60182,0.84323 1.91865,-1.107732 9.52384,-20.8796 11.57066,-21.727421 2.04682,-0.847822 21.40532,7.755323 23.54529,7.181918 2.13998,-0.573404 14.603355,-17.703192 16.799866,-17.992372 2.196511,-0.28918 18.668726,13.031171 20.88419,13.031171 2.215465,0 18.687681,-13.320351 20.884191,-13.031171 2.196511,0.28918 14.659889,17.418966 16.799864,17.99237 2.139974,0.573405 21.498473,-8.02974 23.5452951,-7.181919 2.0468223,0.847822 9.65200507,20.619688 11.5706536,21.727421 1.9186486,1.107732 22.8441803,-2.19192 24.6018263,-0.843231 1.757646,1.348689 3.986353,22.415212 5.552923,23.981782 1.56657,1.56657 22.633094,3.795277 23.981783,5.552923 1.34869,1.757646 -1.950962,22.683177 -0.84323,24.601825 1.107732,1.918649 20.8796,9.523832 21.727422,11.5706543 0.847822,2.0468222 -7.755323,21.4053197 -7.181919,23.5452937 0.573405,2.139975 17.703196,14.603354 17.992372,16.799865 0.289177,2.19651 -13.031171,18.668725 -13.031171,20.88419 0,2.215464 13.320348,18.68768 13.031172,20.884191 -0.289176,2.196511 -17.418966,14.659889 -17.992371,16.799863 -0.573404,2.139975 8.029741,21.498472 7.181919,23.545292 -0.847821,2.04683 -20.619688,9.65201 -21.72742,11.57066 -1.107732,1.91865 2.19192,22.84418 0.84323,24.60182 -1.348689,1.75765 -22.415212,3.98636 -23.981782,5.55293 -1.56657,1.56657 -3.795277,22.63309 -5.552923,23.98178 -1.757646,1.34869 -22.6831761,-1.95096 -24.6018246,-0.84323 -1.91864855,1.10773 -9.5238318,20.8796 -11.5706542,21.72742 -2.0468222,0.84782 -21.4053192,-7.75532 -23.5452942,-7.18192 -2.139974,0.57341 -14.603353,17.7032 -16.799864,17.99237 -2.196511,0.28918 -18.668726,-13.03117 -20.88419,-13.03117 z"
         inkscape:randomized="0"
         inkscape:rounded="0.09"
         inkscape:flatsided="false"
         sodipodi:arg2="1.701696"
         sodipodi:arg1="1.5707963"
         sodipodi:r2="160"
         sodipodi:r1="145.60001"
         sodipodi:cy="54.330708"
         sodipodi:cx="-70"
         sodipodi:sides="24"
         id="path4525"
         style="color:#000000;clip-rule:nonzero;display:inline;overflow:visible;visibility:visible;opacity:1;isolation:auto;mix-blend-mode:normal;color-interpolation:sRGB;color-interpolation-filters:linearRGB;solid-color:#000000;solid-opacity:1;fill:#000000;fill-opacity:0.41935483;fill-rule:nonzero;stroke:none;stroke-width:2;stroke-linecap:butt;stroke-linejoin:miter;stroke-miterlimit:4;stroke-dasharray:none;stroke-dashoffset:0;stroke-opacity:1;color-rendering:auto;image-rendering:auto;shape-rendering:auto;text-rendering:auto;enable-background:accumulate;filter:url(#filter4531)"
         sodipodi:type="star" />
      <path
         sodipodi:type="star"
         style="color:#000000;clip-rule:nonzero;display:inline;overflow:visible;visibility:visible;opacity:1;isolation:auto;mix-blend-mode:normal;color-interpolation:sRGB;color-interpolation-filters:linearRGB;solid-color:#000000;solid-opacity:1;fill:#607d8b;fill-opacity:1;fill-rule:nonzero;stroke:none;stroke-width:2;stroke-linecap:butt;stroke-linejoin:miter;stroke-miterlimit:4;stroke-dasharray:none;stroke-dashoffset:0;stroke-opacity:1;color-rendering:auto;image-rendering:auto;shape-rendering:auto;text-rendering:auto;enable-background:accumulate"
         id="path4160"
         sodipodi:sides="24"
         sodipodi:cx="-70"
         sodipodi:cy="54.330708"
         sodipodi:r1="145.60001"
         sodipodi:r2="160"
         sodipodi:arg1="1.5707963"
         sodipodi:arg2="1.701696"
         inkscape:flatsided="false"
         inkscape:rounded="0.09"
         inkscape:randomized="0"
         d="m -69.999996,199.93071 c -2.215465,0 -18.687681,13.32035 -20.884191,13.03118 -2.196511,-0.28918 -14.659893,-17.41897 -16.799863,-17.99238 -2.13998,-0.5734 -21.49847,8.02975 -23.5453,7.18192 -2.04682,-0.84782 -9.652,-20.61968 -11.57065,-21.72742 -1.91865,-1.10773 -22.84418,2.19192 -24.60183,0.84323 -1.75764,-1.34869 -3.98635,-22.41521 -5.55292,-23.98178 -1.56657,-1.56657 -22.63309,-3.79528 -23.98178,-5.55292 -1.34869,-1.75765 1.95096,-22.68318 0.84323,-24.60183 -1.10773,-1.91864 -20.8796,-9.52383 -21.72742,-11.57065 -0.84783,-2.04682 7.75532,-21.40532 7.18191,-23.545294 -0.5734,-2.139975 -17.70319,-14.603353 -17.99237,-16.799864 -0.28917,-2.196511 13.03117,-18.668726 13.03117,-20.884191 0,-2.215464 -13.32034,-18.68768 -13.03117,-20.884191 0.28918,-2.196511 17.41897,-14.659889 17.99237,-16.799863 0.57341,-2.139975 -8.02974,-21.4984732 -7.18192,-23.5452956 0.84783,-2.0468222 20.61969,-9.6520054 21.72742,-11.5706534 1.10774,-1.918649 -2.19192,-22.84418 -0.84323,-24.601826 1.34869,-1.757647 22.41522,-3.986353 23.98179,-5.552923 1.56657,-1.56657 3.79527,-22.633094 5.55292,-23.981784 1.75764,-1.348689 22.68318,1.950963 24.60182,0.84323 1.91865,-1.107732 9.52384,-20.8796 11.57066,-21.727421 2.04682,-0.847822 21.40532,7.755323 23.54529,7.181918 2.13998,-0.573404 14.603355,-17.703192 16.799866,-17.992372 2.196511,-0.28918 18.668726,13.031171 20.88419,13.031171 2.215465,0 18.687681,-13.320351 20.884191,-13.031171 2.196511,0.28918 14.659889,17.418966 16.799864,17.99237 2.139974,0.573405 21.498473,-8.02974 23.5452951,-7.181919 2.0468223,0.847822 9.65200507,20.619688 11.5706536,21.727421 1.9186486,1.107732 22.8441803,-2.19192 24.6018263,-0.843231 1.757646,1.348689 3.986353,22.415212 5.552923,23.981782 1.56657,1.56657 22.633094,3.795277 23.981783,5.552923 1.34869,1.757646 -1.950962,22.683177 -0.84323,24.601825 1.107732,1.918649 20.8796,9.523832 21.727422,11.5706543 0.847822,2.0468222 -7.755323,21.4053197 -7.181919,23.5452937 0.573405,2.139975 17.703196,14.603354 17.992372,16.799865 0.289177,2.19651 -13.031171,18.668725 -13.031171,20.88419 0,2.215464 13.320348,18.68768 13.031172,20.884191 -0.289176,2.196511 -17.418966,14.659889 -17.992371,16.799863 -0.573404,2.139975 8.029741,21.498472 7.181919,23.545292 -0.847821,2.04683 -20.619688,9.65201 -21.72742,11.57066 -1.107732,1.91865 2.19192,22.84418 0.84323,24.60182 -1.348689,1.75765 -22.415212,3.98636 -23.981782,5.55293 -1.56657,1.56657 -3.795277,22.63309 -5.552923,23.98178 -1.757646,1.34869 -22.6831761,-1.95096 -24.6018246,-0.84323 -1.91864855,1.10773 -9.5238318,20.8796 -11.5706542,21.72742 -2.0468222,0.84782 -21.4053192,-7.75532 -23.5452942,-7.18192 -2.139974,0.57341 -14.603353,17.7032 -16.799864,17.99237 -2.196511,0.28918 -18.668726,-13.03117 -20.88419,-13.03117 z"
         transform="matrix(1.1969071,0,0,1.0507627,187.90359,780.3865)"
         inkscape:transform-center-y="12.774123" />
      <path
         sodipodi:nodetypes="sssssssssssssssssssss"
         inkscape:connector-curvature="0"
         id="path4276"
         d="m 104.11833,704.50344 c -84.638214,0 -154.136757,60.52882 -154.136757,136.0861 0,75.55728 69.498543,136.08611 154.136757,136.08611 84.63821,0 154.13939,-60.52883 154.13939,-136.08611 0,-75.55728 -69.50118,-136.0861 -154.13939,-136.0861 z m 0,12.59186 c 78.66348,0 141.5471,55.68925 141.5471,123.49424 0,67.80498 -62.88362,123.49423 -141.5471,123.49423 -78.663465,0 -141.544469,-55.68925 -141.544469,-123.49423 0,-67.80499 62.881004,-123.49424 141.544469,-123.49424 z m 0.003,5.1045 c -2.7444,0 -32.910577,72.73616 -35.130841,74.15231 -2.220249,1.41615 -90.34037,4.12669 -91.188433,6.41806 -0.848064,2.29138 68.626089,49.95423 69.47415,52.24562 0.848075,2.29137 -23.446278,76.70222 -21.226028,78.11838 2.220263,1.41615 75.326752,-41.86149 78.071152,-41.86149 2.74439,0 75.84826,43.27764 78.06851,41.86149 2.22026,-1.41616 -22.07409,-75.82701 -21.22603,-78.11838 0.84808,-2.29138 70.32223,-49.95424 69.47416,-52.24562 -0.84806,-2.29137 -88.96554,-5.00191 -91.18581,-6.41806 -2.22026,-1.41615 -32.38644,-74.15231 -35.13083,-74.15231 z"
         style="color:#000000;clip-rule:nonzero;display:inline;overflow:visible;visibility:visible;opacity:1;isolation:auto;mix-blend-mode:normal;color-interpolation:sRGB;color-interpolation-filters:linearRGB;solid-color:#000000;solid-opacity:1;fill:#727272;fill-opacity:1;fill-rule:nonzero;stroke:none;stroke-width:2;stroke-linecap:butt;stroke-linejoin:miter;stroke-miterlimit:4;stroke-dasharray:none;stroke-dashoffset:0;stroke-opacity:1;color-rendering:auto;image-rendering:auto;shape-rendering:auto;text-rendering:auto;enable-background:accumulate;filter:url(#filter4282)" />
      <path
         style="color:#000000;clip-rule:nonzero;display:inline;overflow:visible;visibility:visible;opacity:1;isolation:auto;mix-blend-mode:normal;color-interpolation:sRGB;color-interpolation-filters:linearRGB;solid-color:#000000;solid-opacity:1;fill:url(#linearGradient4202);fill-opacity:1.0;fill-rule:nonzero;stroke:none;stroke-width:2;stroke-linecap:butt;stroke-linejoin:miter;stroke-miterlimit:4;stroke-dasharray:none;stroke-dashoffset:0;stroke-opacity:1;color-rendering:auto;image-rendering:auto;shape-rendering:auto;text-rendering:auto;enable-background:accumulate"
         d="m 104.11833,704.50344 c -84.638214,0 -154.136757,60.52882 -154.136757,136.0861 0,75.55728 69.498543,136.08611 154.136757,136.08611 84.63821,0 154.13939,-60.52883 154.13939,-136.08611 0,-75.55728 -69.50118,-136.0861 -154.13939,-136.0861 z m 0,12.59186 c 78.66348,0 141.5471,55.68925 141.5471,123.49424 0,67.80498 -62.88362,123.49423 -141.5471,123.49423 -78.663465,0 -141.544469,-55.68925 -141.544469,-123.49423 0,-67.80499 62.881004,-123.49424 141.544469,-123.49424 z m 0.003,5.1045 c -2.7444,0 -32.910577,72.73616 -35.130841,74.15231 -2.220249,1.41615 -90.34037,4.12669 -91.188433,6.41806 -0.848064,2.29138 68.626089,49.95423 69.47415,52.24562 0.848075,2.29137 -23.446278,76.70222 -21.226028,78.11838 2.220263,1.41615 75.326752,-41.86149 78.071152,-41.86149 2.74439,0 75.84826,43.27764 78.06851,41.86149 2.22026,-1.41616 -22.07409,-75.82701 -21.22603,-78.11838 0.84808,-2.29138 70.32223,-49.95424 69.47416,-52.24562 -0.84806,-2.29137 -88.96554,-5.00191 -91.18581,-6.41806 -2.22026,-1.41615 -32.38644,-74.15231 -35.13083,-74.15231 z"
         id="path4156"
         inkscape:connector-curvature="0"
         sodipodi:nodetypes="sssssssssssssssssssss" />
    </g>
  </g>
</svg>
