<?xml version="1.0" encoding="UTF-8" standalone="no"?>
<!-- Created with Inkscape (http://www.inkscape.org/) -->

<svg
   xmlns:dc="http://purl.org/dc/elements/1.1/"
   xmlns:cc="http://creativecommons.org/ns#"
   xmlns:rdf="http://www.w3.org/1999/02/22-rdf-syntax-ns#"
   xmlns:svg="http://www.w3.org/2000/svg"
   xmlns="http://www.w3.org/2000/svg"
   xmlns:sodipodi="http://sodipodi.sourceforge.net/DTD/sodipodi-0.dtd"
   xmlns:inkscape="http://www.inkscape.org/namespaces/inkscape"
   width="10cm"
   height="10cm"
   viewBox="0 0 354.33071 354.3307"
   id="svg2"
   version="1.1"
   inkscape:version="0.91 r13725"
   sodipodi:docname="DoubleLeftClick.svg">
  <defs
     id="defs4" />
  <sodipodi:namedview
     id="base"
     pagecolor="#ffffff"
     bordercolor="#666666"
     borderopacity="1.0"
     inkscape:pageopacity="0.0"
     inkscape:pageshadow="2"
     inkscape:zoom="1.4"
     inkscape:cx="259.97787"
     inkscape:cy="167.71567"
     inkscape:document-units="px"
     inkscape:current-layer="layer1"
     showgrid="true"
     units="cm"
     inkscape:snap-bbox="true"
     inkscape:bbox-paths="true"
     inkscape:snap-page="true"
     inkscape:bbox-nodes="true"
     inkscape:snap-bbox-edge-midpoints="true"
     inkscape:snap-bbox-midpoints="true"
     inkscape:window-width="1861"
     inkscape:window-height="1176"
     inkscape:window-x="1979"
     inkscape:window-y="24"
     inkscape:window-maximized="1"
     inkscape:snap-object-midpoints="true"
     inkscape:snap-center="true"
     inkscape:snap-to-guides="false"
     inkscape:object-paths="false"
     inkscape:snap-intersection-paths="false"
     inkscape:object-nodes="true"
     inkscape:snap-smooth-nodes="false"
     inkscape:snap-midpoints="false"
     inkscape:snap-grids="true"
     showguides="true">
    <inkscape:grid
       type="xygrid"
       id="grid4686" />
  </sodipodi:namedview>
  <metadata
     id="metadata7">
    <rdf:RDF>
      <cc:Work
         rdf:about="">
        <dc:format>image/svg+xml</dc:format>
        <dc:type
           rdf:resource="http://purl.org/dc/dcmitype/StillImage" />
        <dc:title></dc:title>
      </cc:Work>
    </rdf:RDF>
  </metadata>
  <g
     inkscape:label="Layer 1"
     inkscape:groupmode="layer"
     id="layer1"
     transform="translate(0,-698.03155)">
    <path
       style="color:#000000;clip-rule:nonzero;display:inline;overflow:visible;visibility:visible;opacity:1;isolation:auto;mix-blend-mode:normal;color-interpolation:sRGB;color-interpolation-filters:linearRGB;solid-color:#000000;solid-opacity:1;fill:#f2f2f2;fill-opacity:1;fill-rule:nonzero;stroke:none;stroke-width:5;stroke-linecap:butt;stroke-linejoin:miter;stroke-miterlimit:4;stroke-dasharray:none;stroke-dashoffset:0;stroke-opacity:1;color-rendering:auto;image-rendering:auto;shape-rendering:auto;text-rendering:auto;enable-background:accumulate"
       d="m 177.16536,773.83395 c -49.70563,0 -90.00001,40.29437 -90.000008,90 l 0,40 0,32.72588 c 0,22.15996 13.380008,40 30.000008,40 l 120,0 c 16.62,0 30,-17.84004 30,-40 l 0,-32.72588 0,-40 c 0,-49.70563 -40.29437,-90 -90,-90 z"
       id="rect4136"
       inkscape:connector-curvature="0"
       sodipodi:nodetypes="sscsssscss" />
    <path
       style="color:#000000;clip-rule:nonzero;display:inline;overflow:visible;visibility:visible;opacity:1;isolation:auto;mix-blend-mode:normal;color-interpolation:sRGB;color-interpolation-filters:linearRGB;solid-color:#000000;solid-opacity:1;fill:#50baa6;fill-opacity:1;fill-rule:nonzero;stroke:none;stroke-width:5;stroke-linecap:butt;stroke-linejoin:miter;stroke-miterlimit:4;stroke-dasharray:none;stroke-dashoffset:0;stroke-opacity:1;color-rendering:auto;image-rendering:auto;shape-rendering:auto;text-rendering:auto;enable-background:accumulate"
       d="m 177.16536,773.83395 a 90.000008,90 0 0 0 -90.000008,90 l 0,2.16406 92.833988,0 0,-92.06446 a 90.000008,90 0 0 0 -2.83398,-0.0996 z"
       id="rect4147"
       inkscape:connector-curvature="0" />
    <path
       sodipodi:nodetypes="sscsssscss"
       inkscape:connector-curvature="0"
       id="path4168"
       d="m 177.16536,773.83395 c -49.70563,0 -90.00001,40.29437 -90.000008,90 l 0,40 0,32.72588 c 0,22.15996 13.380008,40 30.000008,40 l 120,0 c 16.62,0 30,-17.84004 30,-40 l 0,-32.72588 0,-40 c 0,-49.70563 -40.29437,-90 -90,-90 z"
       style="color:#000000;clip-rule:nonzero;display:inline;overflow:visible;visibility:visible;opacity:1;isolation:auto;mix-blend-mode:normal;color-interpolation:sRGB;color-interpolation-filters:linearRGB;solid-color:#000000;solid-opacity:1;fill:#f2f2f2;fill-opacity:1;fill-rule:nonzero;stroke:none;stroke-width:5;stroke-linecap:butt;stroke-linejoin:miter;stroke-miterlimit:4;stroke-dasharray:none;stroke-dashoffset:0;stroke-opacity:1;color-rendering:auto;image-rendering:auto;shape-rendering:auto;text-rendering:auto;enable-background:accumulate" />
    <path
       inkscape:connector-curvature="0"
       id="path4170"
       d="m 177.16536,773.83395 a 90.000008,90 0 0 0 -90.000008,90 l 0,2.16406 92.833988,0 0,-92.06446 a 90.000008,90 0 0 0 -2.83398,-0.0996 z"
       style="color:#000000;clip-rule:nonzero;display:inline;overflow:visible;visibility:visible;opacity:1;isolation:auto;mix-blend-mode:normal;color-interpolation:sRGB;color-interpolation-filters:linearRGB;solid-color:#000000;solid-opacity:1;fill:#50baa6;fill-opacity:1;fill-rule:nonzero;stroke:none;stroke-width:5;stroke-linecap:butt;stroke-linejoin:miter;stroke-miterlimit:4;stroke-dasharray:none;stroke-dashoffset:0;stroke-opacity:1;color-rendering:auto;image-rendering:auto;shape-rendering:auto;text-rendering:auto;enable-background:accumulate" />
    <g
       style="font-style:normal;font-weight:normal;font-size:46.72466278px;line-height:125%;font-family:sans-serif;letter-spacing:0px;word-spacing:0px;fill:#000000;fill-opacity:1;stroke:none;stroke-width:1px;stroke-linecap:butt;stroke-linejoin:miter;stroke-opacity:1"
       id="text4178">
      <path
         d="m 119.31841,840.82297 16.08442,0 0,3.87851 -21.62841,0 0,-3.87851 q 2.6237,-2.71496 7.14103,-7.27792 4.54014,-4.58577 5.70369,-5.90903 2.21303,-2.48681 3.07999,-4.19791 0.88978,-1.73393 0.88978,-3.39941 0,-2.71496 -1.91644,-4.42606 -1.89363,-1.71111 -4.95081,-1.71111 -2.1674,0 -4.58577,0.75289 -2.39555,0.75288 -5.13332,2.28147 l 0,-4.65421 q 2.7834,-1.11792 5.20177,-1.68829 2.41836,-0.57037 4.42606,-0.57037 5.29303,0 8.44147,2.64651 3.14844,2.64651 3.14844,7.07258 0,2.09896 -0.79852,3.99259 -0.7757,1.87081 -2.85184,4.42606 -0.57037,0.66163 -3.62755,3.83289 -3.05718,3.14844 -8.62399,8.82932 z"
         style="fill:#ffffff;fill-opacity:1"
         id="path4200" />
      <path
         d="m 165.74648,819.14893 -9.23998,12.43405 9.71909,13.1185 -4.9508,0 -7.43762,-10.0385 -7.43762,10.0385 -4.95081,0 9.92443,-13.36946 -9.08028,-12.18309 4.95081,0 6.77599,9.10309 6.77599,-9.10309 4.9508,0 z"
         style="fill:#ffffff;fill-opacity:1"
         id="path4202" />
    </g>
    <g
       id="layer1-3"
       inkscape:label="Layer 1"
       transform="translate(182.83465,-101.76321)" />
  </g>
</svg>
