<?xml version="1.0" encoding="UTF-8" standalone="no"?>
<!-- Created with Inkscape (http://www.inkscape.org/) -->

<svg
   xmlns:dc="http://purl.org/dc/elements/1.1/"
   xmlns:cc="http://creativecommons.org/ns#"
   xmlns:rdf="http://www.w3.org/1999/02/22-rdf-syntax-ns#"
   xmlns:svg="http://www.w3.org/2000/svg"
   xmlns="http://www.w3.org/2000/svg"
   xmlns:sodipodi="http://sodipodi.sourceforge.net/DTD/sodipodi-0.dtd"
   xmlns:inkscape="http://www.inkscape.org/namespaces/inkscape"
   width="10cm"
   height="10cm"
   viewBox="0 0 354.33071 354.3307"
   id="svg2"
   version="1.1"
   inkscape:version="0.91 r13725"
   sodipodi:docname="ExtraKeys.svg"
   inkscape:export-filename="C:\Users\Raphael\Git\GazeTheWeb\Browse\Client\content\icons\DeleteAllCharacters.png"
   inkscape:export-xdpi="89.916"
   inkscape:export-ydpi="89.916">
  <defs
     id="defs4" />
  <sodipodi:namedview
     id="base"
     pagecolor="#ffffff"
     bordercolor="#666666"
     borderopacity="1.0"
     inkscape:pageopacity="0.0"
     inkscape:pageshadow="2"
     inkscape:zoom="0.98994949"
     inkscape:cx="176.73415"
     inkscape:cy="213.61992"
     inkscape:document-units="px"
     inkscape:current-layer="g4159"
     showgrid="true"
     units="cm"
     inkscape:snap-bbox="true"
     inkscape:bbox-paths="true"
     inkscape:snap-page="false"
     inkscape:bbox-nodes="true"
     inkscape:snap-bbox-edge-midpoints="true"
     inkscape:snap-bbox-midpoints="true"
     inkscape:window-width="1789"
     inkscape:window-height="770"
     inkscape:window-x="331"
     inkscape:window-y="408"
     inkscape:window-maximized="0"
     inkscape:snap-object-midpoints="true"
     inkscape:snap-center="true"
     inkscape:snap-to-guides="false"
     inkscape:object-paths="false"
     inkscape:snap-intersection-paths="false"
     inkscape:object-nodes="true"
     inkscape:snap-smooth-nodes="false"
     inkscape:snap-midpoints="false"
     inkscape:snap-grids="true"
     showguides="false">
    <inkscape:grid
       type="xygrid"
       id="grid4686" />
  </sodipodi:namedview>
  <metadata
     id="metadata7">
    <rdf:RDF>
      <cc:Work
         rdf:about="">
        <dc:format>image/svg+xml</dc:format>
        <dc:type
           rdf:resource="http://purl.org/dc/dcmitype/StillImage" />
        <dc:title></dc:title>
      </cc:Work>
    </rdf:RDF>
  </metadata>
  <g
     inkscape:label="Layer 1"
     inkscape:groupmode="layer"
     id="layer1"
     transform="translate(0,-698.03155)">
    <g
       id="g4159"
       transform="matrix(1.1608581,0,0,1.1608581,-37.48659,-146.79275)">
      <g
         id="g4163"
         transform="matrix(4.0911673,0,0,4.0911673,-271.08208,-2466.3308)">
        <g
           transform="translate(-1.4132877,2.8770796)"
           id="text4142"
           style="font-style:normal;font-weight:normal;font-size:34.45726776px;line-height:125%;font-family:sans-serif;letter-spacing:0px;word-spacing:0px;fill:#f2f2f2;fill-opacity:1;stroke:none;stroke-width:1px;stroke-linecap:butt;stroke-linejoin:miter;stroke-opacity:1">
          <path
             inkscape:connector-curvature="0"
             id="path4161"
             style="font-style:normal;font-variant:normal;font-weight:normal;font-stretch:normal;font-family:'DejaVu Sans';-inkscape-font-specification:'DejaVu Sans';fill:#f2f2f2;fill-opacity:1"
             d="m 115.54144,793.90918 0,9.37143 9.37144,0 0,2.86022 -9.37144,0 0,9.37144 -2.82657,0 0,-9.37144 -9.37144,0 0,-2.86022 9.37144,0 0,-9.37143 2.82657,0 z" />
        </g>
        <g
           transform="translate(-8.6143091,4.3071555)"
           id="text4146"
           style="font-style:normal;font-weight:normal;font-size:34.45726776px;line-height:125%;font-family:sans-serif;letter-spacing:0px;word-spacing:0px;fill:#f2f2f2;fill-opacity:1;stroke:none;stroke-width:1px;stroke-linecap:butt;stroke-linejoin:miter;stroke-opacity:1">
          <path
             inkscape:connector-curvature="0"
             id="path4158"
             style="font-style:normal;font-variant:normal;font-weight:normal;font-stretch:normal;font-family:'DejaVu Sans';-inkscape-font-specification:'DejaVu Sans';fill:#f2f2f2;fill-opacity:1"
             d="m 137.83434,814.68788 0,2.99483 q -1.76661,1.32916 -3.28084,1.9012 -1.49742,0.57205 -3.12942,0.57205 -1.85074,0 -4.30716,-0.99267 -0.18508,-0.0673 -0.2692,-0.10095 -0.11777,-0.0505 -0.37015,-0.1346 -2.60785,-1.04314 -4.18938,-1.04314 -1.48059,0 -2.92752,0.65617 -1.44694,0.63935 -3.09577,2.03581 l 0,-2.99482 q 1.7666,-1.32917 3.26402,-1.90121 1.51423,-0.58887 3.14624,-0.58887 1.85073,0 4.32398,1.00949 0.16825,0.0673 0.25238,0.10095 0.13459,0.0505 0.37014,0.1346 2.60785,1.04314 4.18939,1.04314 1.44693,0 2.86022,-0.63935 1.43011,-0.63934 3.16307,-2.05263 z" />
        </g>
        <g
           id="text4150"
           style="font-style:normal;font-weight:normal;font-size:34.45726776px;line-height:125%;font-family:sans-serif;letter-spacing:0px;word-spacing:0px;fill:#f2f2f2;fill-opacity:1;stroke:none;stroke-width:1px;stroke-linecap:butt;stroke-linejoin:miter;stroke-opacity:1">
          <path
             id="path4155"
             style="font-style:normal;font-variant:normal;font-weight:normal;font-stretch:normal;font-family:'DejaVu Sans';-inkscape-font-specification:'DejaVu Sans';fill:#f2f2f2;fill-opacity:1"
             d="m 99.902748,825.27915 q -1.53106,1.36281 -2.254528,2.72562 -0.706643,1.34599 -0.706643,2.82657 0,2.45643 1.783433,4.08844 1.78343,1.63201 4.47541,1.63201 1.59836,0 2.99482,-0.52157 1.39646,-0.5384 2.62467,-1.61519 l -8.917162,-9.13588 z m 2.372302,-1.88439 8.54702,8.74892 q 0.99266,-1.49741 1.54788,-3.19672 0.55522,-1.71613 0.65617,-3.63417 l 3.12942,0 q -0.2019,2.22088 -1.07679,4.39129 -0.87489,2.1704 -2.4396,4.29033 l 4.69413,4.79508 -4.23986,0 -2.40595,-2.47325 q -1.74978,1.49741 -3.66782,2.2377 -1.91803,0.72347 -4.12208,0.72347 -4.054786,0 -6.628987,-2.305 -2.5742,-2.32183 -2.5742,-5.93917 0,-2.15358 1.127264,-4.03796 1.127265,-1.90121 3.381793,-3.56687 -0.807592,-1.05996 -1.228213,-2.1031 -0.420621,-1.05997 -0.420621,-2.06946 0,-2.72562 1.867557,-4.37445 1.867557,-1.66566 4.963327,-1.66566 1.39646,0 2.7761,0.30284 1.39646,0.30285 2.82657,0.90854 l 0,3.06213 q -1.46376,-0.79077 -2.79292,-1.19457 -1.32916,-0.42062 -2.47325,-0.42062 -1.76661,0 -2.87705,0.94219 -1.093615,0.92537 -1.093615,2.40595 0,0.85807 0.487925,1.73296 0.50474,0.85807 2.0358,2.4396 z"
             inkscape:connector-curvature="0" />
        </g>
      </g>
    </g>
  </g>
</svg>
