<?xml version="1.0" encoding="UTF-8" standalone="no"?>
<!-- Created with Inkscape (http://www.inkscape.org/) -->

<svg
   xmlns:dc="http://purl.org/dc/elements/1.1/"
   xmlns:cc="http://creativecommons.org/ns#"
   xmlns:rdf="http://www.w3.org/1999/02/22-rdf-syntax-ns#"
   xmlns:svg="http://www.w3.org/2000/svg"
   xmlns="http://www.w3.org/2000/svg"
   xmlns:sodipodi="http://sodipodi.sourceforge.net/DTD/sodipodi-0.dtd"
   xmlns:inkscape="http://www.inkscape.org/namespaces/inkscape"
   width="10cm"
   height="10cm"
   viewBox="0 0 354.33071 354.3307"
   id="svg2"
   version="1.1"
   inkscape:version="0.91 r13725"
   sodipodi:docname="History.svg"
   inkscape:export-filename="C:\Users\Raphael\Git\GazeTheWeb\Browse\Client\content\icons\History.png"
   inkscape:export-xdpi="89.916"
   inkscape:export-ydpi="89.916">
  <defs
     id="defs4" />
  <sodipodi:namedview
     id="base"
     pagecolor="#ffffff"
     bordercolor="#666666"
     borderopacity="1.0"
     inkscape:pageopacity="0.0"
     inkscape:pageshadow="2"
     inkscape:zoom="0.35"
     inkscape:cx="495.38074"
     inkscape:cy="609.11728"
     inkscape:document-units="px"
     inkscape:current-layer="g4151"
     showgrid="true"
     units="cm"
     inkscape:snap-bbox="true"
     inkscape:bbox-paths="true"
     inkscape:snap-page="true"
     inkscape:bbox-nodes="true"
     inkscape:snap-bbox-edge-midpoints="true"
     inkscape:snap-bbox-midpoints="true"
     inkscape:window-width="1920"
     inkscape:window-height="1027"
     inkscape:window-x="-8"
     inkscape:window-y="-8"
     inkscape:window-maximized="1"
     inkscape:snap-object-midpoints="true"
     inkscape:snap-center="true"
     inkscape:snap-to-guides="true"
     inkscape:object-paths="true"
     inkscape:snap-intersection-paths="true"
     inkscape:object-nodes="true"
     inkscape:snap-smooth-nodes="true"
     inkscape:snap-midpoints="true"
     inkscape:snap-grids="true">
    <inkscape:grid
       type="xygrid"
       id="grid4686" />
  </sodipodi:namedview>
  <metadata
     id="metadata7">
    <rdf:RDF>
      <cc:Work
         rdf:about="">
        <dc:format>image/svg+xml</dc:format>
        <dc:type
           rdf:resource="http://purl.org/dc/dcmitype/StillImage" />
        <dc:title />
      </cc:Work>
    </rdf:RDF>
  </metadata>
  <g
     inkscape:label="Layer 1"
     inkscape:groupmode="layer"
     id="layer1"
     transform="translate(0,-698.03155)">
    <g
       id="g4151"
       transform="matrix(0.8547526,0,0,0.8547526,9.523055,111.23649)">
      <g
         id="g4157"
         transform="matrix(0.83333331,0,0,0.83333331,10.425838,132.22868)">
        <path
           id="path4137"
           transform="matrix(1.1699292,0,0,1.1699292,-11.1413,686.50864)"
           d="M 200,74.330078 200,194.33008 88.669922,149.79883 A 120,120 0 0 0 80,194.33008 a 120,120 0 0 0 120,120 120,120 0 0 0 120,-120 A 120,120 0 0 0 200,74.330078 Z m 0,0 A 120,120 0 0 0 189.6543,74.855469 120,120 0 0 1 200,74.330078 Z M 88.669922,149.79883 a 120,120 0 0 1 3.878906,-8.56836 120,120 0 0 0 -3.878906,8.56836 z M 184.25977,75.511719 a 120,120 0 0 0 -6.62696,1.007812 120,120 0 0 1 6.62696,-1.007812 z m -11.45508,2.089843 a 120,120 0 0 0 -6.94531,1.779297 120,120 0 0 1 6.94531,-1.779297 z m -11.24414,3.208985 a 120,120 0 0 0 -7.1211,2.605469 120,120 0 0 1 7.1211,-2.605469 z m -10.87696,4.287109 a 120,120 0 0 0 -7.20507,3.488282 120,120 0 0 1 7.20507,-3.488282 z m -10.38671,5.3125 a 120,120 0 0 0 -7.21485,4.431641 120,120 0 0 1 7.21485,-4.431641 z m -9.82422,6.298828 a 120,120 0 0 0 -7.07813,5.390626 120,120 0 0 1 7.07813,-5.390626 z m -9.20313,7.255856 a 120,120 0 0 0 -6.77734,6.32422 120,120 0 0 1 6.77734,-6.32422 z m -8.4707,8.14258 a 120,120 0 0 0 -6.32617,7.21485 120,120 0 0 1 6.32617,-7.21485 z m -7.64844,8.95313 a 120,120 0 0 0 -5.748046,8.05273 120,120 0 0 1 5.748046,-8.05273 z m -6.736328,9.66406 a 120,120 0 0 0 -5.0625,8.84375 120,120 0 0 1 5.0625,-8.84375 z"
           style="color:#000000;clip-rule:nonzero;display:inline;overflow:visible;visibility:visible;opacity:1;isolation:auto;mix-blend-mode:normal;color-interpolation:sRGB;color-interpolation-filters:linearRGB;solid-color:#000000;solid-opacity:1;fill:#f2f2f2;fill-opacity:1;fill-rule:nonzero;stroke:none;stroke-width:1.16992915;stroke-linecap:butt;stroke-linejoin:miter;stroke-miterlimit:4;stroke-dasharray:none;stroke-dashoffset:0;stroke-opacity:1;color-rendering:auto;image-rendering:auto;shape-rendering:auto;text-rendering:auto;enable-background:accumulate"
           inkscape:connector-curvature="0" />
        <path
           id="path4139"
           transform="matrix(1.1699292,0,0,1.1699292,-11.1413,686.50864)"
           d="M 200,74.330078 A 120,120 0 0 0 88.669922,149.79883 L 200,194.33008 200,74.330078 Z"
           style="fill:#b4b4b4;fill-opacity:1;fill-rule:evenodd;stroke:none;stroke-width:1px;stroke-linecap:butt;stroke-linejoin:miter;stroke-opacity:1"
           inkscape:connector-curvature="0" />
        <path
           inkscape:transform-center-x="55.43389"
           inkscape:transform-center-y="-20.046785"
           sodipodi:nodetypes="sssssss"
           inkscape:connector-curvature="0"
           id="rect4152"
           d="m 92.494271,861.72188 c 1.203566,-3.00893 4.543273,-4.32448 7.603729,-3.25878 l 121.66027,42.36368 c 3.06046,1.06569 2.28987,10.02612 1.08631,13.03505 -1.20356,3.00891 -6.82515,10.02895 -9.77631,8.69 L 95.753005,869.32562 c -2.951156,-1.33895 -4.462297,-4.59483 -3.258734,-7.60374 z"
           style="color:#000000;clip-rule:nonzero;display:inline;overflow:visible;visibility:visible;opacity:1;isolation:auto;mix-blend-mode:normal;color-interpolation:sRGB;color-interpolation-filters:linearRGB;solid-color:#000000;solid-opacity:1;fill:#50baa6;fill-opacity:1;fill-rule:nonzero;stroke:none;stroke-width:1;stroke-linecap:butt;stroke-linejoin:miter;stroke-miterlimit:4;stroke-dasharray:none;stroke-dashoffset:0;stroke-opacity:1;color-rendering:auto;image-rendering:auto;shape-rendering:auto;text-rendering:auto;enable-background:accumulate" />
        <circle
           r="19.418587"
           cy="913.86182"
           cx="222.84459"
           id="path4155"
           style="color:#000000;clip-rule:nonzero;display:inline;overflow:visible;visibility:visible;opacity:1;isolation:auto;mix-blend-mode:normal;color-interpolation:sRGB;color-interpolation-filters:linearRGB;solid-color:#000000;solid-opacity:1;fill:#50baa6;fill-opacity:1;fill-rule:nonzero;stroke:none;stroke-width:1;stroke-linecap:butt;stroke-linejoin:miter;stroke-miterlimit:4;stroke-dasharray:none;stroke-dashoffset:0;stroke-opacity:1;color-rendering:auto;image-rendering:auto;shape-rendering:auto;text-rendering:auto;enable-background:accumulate" />
      </g>
    </g>
  </g>
</svg>
