<?xml version="1.0" encoding="UTF-8" standalone="no"?>
<!-- Created with Inkscape (http://www.inkscape.org/) -->

<svg
   xmlns:dc="http://purl.org/dc/elements/1.1/"
   xmlns:cc="http://creativecommons.org/ns#"
   xmlns:rdf="http://www.w3.org/1999/02/22-rdf-syntax-ns#"
   xmlns:svg="http://www.w3.org/2000/svg"
   xmlns="http://www.w3.org/2000/svg"
   xmlns:sodipodi="http://sodipodi.sourceforge.net/DTD/sodipodi-0.dtd"
   xmlns:inkscape="http://www.inkscape.org/namespaces/inkscape"
   width="10cm"
   height="10cm"
   viewBox="0 0 354.33071 354.3307"
   id="svg2"
   version="1.1"
   inkscape:version="0.91 r13725"
   sodipodi:docname="NoDataTransfer.svg"
   inkscape:export-filename="C:\Users\Raphael\Git\GazeTheWeb\Browse\Client\content\icons\NoDataTransfer.png"
   inkscape:export-xdpi="97.535995"
   inkscape:export-ydpi="97.535995">
  <defs
     id="defs4" />
  <sodipodi:namedview
     id="base"
     pagecolor="#ffffff"
     bordercolor="#666666"
     borderopacity="1.0"
     inkscape:pageopacity="0.0"
     inkscape:pageshadow="2"
     inkscape:zoom="2.8"
     inkscape:cx="209.9301"
     inkscape:cy="212.47857"
     inkscape:document-units="px"
     inkscape:current-layer="g4159"
     showgrid="true"
     units="cm"
     inkscape:snap-bbox="true"
     inkscape:bbox-paths="true"
     inkscape:snap-page="true"
     inkscape:bbox-nodes="true"
     inkscape:snap-bbox-edge-midpoints="true"
     inkscape:snap-bbox-midpoints="true"
     inkscape:window-width="1920"
     inkscape:window-height="1027"
     inkscape:window-x="-8"
     inkscape:window-y="-8"
     inkscape:window-maximized="1"
     inkscape:snap-object-midpoints="true"
     inkscape:snap-center="true"
     inkscape:snap-to-guides="true"
     inkscape:object-paths="true"
     inkscape:snap-intersection-paths="true"
     inkscape:object-nodes="true"
     inkscape:snap-smooth-nodes="true"
     inkscape:snap-midpoints="true"
     inkscape:snap-grids="true">
    <inkscape:grid
       type="xygrid"
       id="grid4686" />
  </sodipodi:namedview>
  <metadata
     id="metadata7">
    <rdf:RDF>
      <cc:Work
         rdf:about="">
        <dc:format>image/svg+xml</dc:format>
        <dc:type
           rdf:resource="http://purl.org/dc/dcmitype/StillImage" />
        <dc:title />
      </cc:Work>
    </rdf:RDF>
  </metadata>
  <g
     inkscape:label="Layer 1"
     inkscape:groupmode="layer"
     id="layer1"
     transform="translate(0,-698.03155)">
    <g
       id="g4151"
       transform="matrix(0.8547526,0,0,0.8547526,9.523055,111.23649)">
      <g
         id="g4159"
         transform="matrix(1.5806447,0,0,1.4,-142.23916,-320.10991)">
        <path
           style="color:#000000;clip-rule:nonzero;display:inline;overflow:visible;visibility:visible;opacity:1;isolation:auto;mix-blend-mode:normal;color-interpolation:sRGB;color-interpolation-filters:linearRGB;solid-color:#000000;solid-opacity:1;fill:#f2f2f2;fill-opacity:1;fill-rule:nonzero;stroke:none;stroke-width:2.33985829;stroke-linecap:butt;stroke-linejoin:miter;stroke-miterlimit:4;stroke-dasharray:none;stroke-dashoffset:0;stroke-opacity:1;color-rendering:auto;image-rendering:auto;shape-rendering:auto;text-rendering:auto;enable-background:accumulate"
           d="m 243.49614,789.56995 a 54.429779,54.429778 0 0 0 -29.56967,12.63549 38.878412,38.878419 0 0 0 -19.29484,-5.1592 38.878412,38.878419 0 0 0 -38.87985,38.87841 38.878412,38.878419 0 0 0 0.0211,0.63134 54.429779,54.429778 0 0 0 -7.79596,-0.63134 54.429779,54.429778 0 0 0 -54.429479,54.42978 54.429779,54.429778 0 0 0 48.597409,54.09783 l 0,0.33194 5.83207,0 16.14917,0 79.37001,-155.21425 z m 30.99166,6.04437 -76.28006,149.16988 89.7313,0 0,-0.16488 a 50.541942,50.541951 0 0 0 46.65467,-50.37705 50.541942,50.541951 0 0 0 -31.29528,-46.71051 54.429779,54.429778 0 0 0 0.19216,-3.83143 54.429779,54.429778 0 0 0 -29.00279,-48.08601 z"
           id="path4156"
           inkscape:connector-curvature="0" />
        <rect
           style="color:#000000;clip-rule:nonzero;display:inline;overflow:visible;visibility:visible;opacity:1;isolation:auto;mix-blend-mode:normal;color-interpolation:sRGB;color-interpolation-filters:linearRGB;solid-color:#000000;solid-opacity:1;fill:#f2f2f2;fill-opacity:1;fill-rule:nonzero;stroke:none;stroke-width:2;stroke-linecap:butt;stroke-linejoin:miter;stroke-miterlimit:4;stroke-dasharray:none;stroke-dashoffset:0;stroke-opacity:1;color-rendering:auto;image-rendering:auto;shape-rendering:auto;text-rendering:auto;enable-background:accumulate"
           id="rect4137"
           width="15.303072"
           height="195.08159"
           x="586.97137"
           y="513.6449"
           transform="matrix(0.83773593,0.54607556,-0.45529206,0.89034215,0,0)" />
      </g>
    </g>
  </g>
</svg>
