<?xml version="1.0" encoding="UTF-8" standalone="no"?>
<!-- Created with Inkscape (http://www.inkscape.org/) -->

<svg
   xmlns:dc="http://purl.org/dc/elements/1.1/"
   xmlns:cc="http://creativecommons.org/ns#"
   xmlns:rdf="http://www.w3.org/1999/02/22-rdf-syntax-ns#"
   xmlns:svg="http://www.w3.org/2000/svg"
   xmlns="http://www.w3.org/2000/svg"
   xmlns:sodipodi="http://sodipodi.sourceforge.net/DTD/sodipodi-0.dtd"
   xmlns:inkscape="http://www.inkscape.org/namespaces/inkscape"
   width="10cm"
   height="10cm"
   viewBox="0 0 354.33071 354.3307"
   id="svg2"
   version="1.1"
   inkscape:version="0.91 r13725"
   sodipodi:docname="PivotOverlay.svg">
  <defs
     id="defs4" />
  <sodipodi:namedview
     id="base"
     pagecolor="#ffffff"
     bordercolor="#666666"
     borderopacity="1.0"
     inkscape:pageopacity="0.0"
     inkscape:pageshadow="2"
     inkscape:zoom="3.959798"
     inkscape:cx="117.5496"
     inkscape:cy="242.32002"
     inkscape:document-units="px"
     inkscape:current-layer="layer1"
     showgrid="true"
     units="cm"
     inkscape:snap-bbox="true"
     inkscape:bbox-paths="true"
     inkscape:snap-page="false"
     inkscape:bbox-nodes="true"
     inkscape:snap-bbox-edge-midpoints="true"
     inkscape:snap-bbox-midpoints="true"
     inkscape:window-width="1861"
     inkscape:window-height="1176"
     inkscape:window-x="1979"
     inkscape:window-y="24"
     inkscape:window-maximized="1"
     inkscape:snap-object-midpoints="true"
     inkscape:snap-center="true"
     inkscape:snap-to-guides="false"
     inkscape:object-paths="false"
     inkscape:snap-intersection-paths="false"
     inkscape:object-nodes="true"
     inkscape:snap-smooth-nodes="false"
     inkscape:snap-midpoints="false"
     inkscape:snap-grids="false">
    <inkscape:grid
       type="xygrid"
       id="grid4686" />
  </sodipodi:namedview>
  <metadata
     id="metadata7">
    <rdf:RDF>
      <cc:Work
         rdf:about="">
        <dc:format>image/svg+xml</dc:format>
        <dc:type
           rdf:resource="http://purl.org/dc/dcmitype/StillImage" />
        <dc:title />
      </cc:Work>
    </rdf:RDF>
  </metadata>
  <g
     inkscape:label="Layer 1"
     inkscape:groupmode="layer"
     id="layer1"
     transform="translate(0,-698.03155)">
    <path
       style="color:#000000;clip-rule:nonzero;display:inline;overflow:visible;visibility:visible;opacity:0.5;isolation:auto;mix-blend-mode:normal;color-interpolation:sRGB;color-interpolation-filters:linearRGB;solid-color:#000000;solid-opacity:1;fill:#f2f2f2;fill-opacity:1;fill-rule:nonzero;stroke:none;stroke-width:5;stroke-linecap:butt;stroke-linejoin:miter;stroke-miterlimit:4;stroke-dasharray:none;stroke-dashoffset:0;stroke-opacity:1;color-rendering:auto;image-rendering:auto;shape-rendering:auto;text-rendering:auto;enable-background:accumulate"
       d="m 167.16535,775.19689 c -2.77,0 -5,2.23 -5,5 l 0,26.72265 a 69.135803,70 0 0 0 -52.44336,53.27735 l -27.556636,0 c -2.77,0 -5,2.23 -5,5 l 0,20 c 0,2.77 2.23,5 5,5 l 27.517576,0 a 69.135803,70 0 0 0 52.48242,53.24414 l 0,26.75586 c 0,2.77 2.23,5 5,5 l 20,0 c 2.77,0 5,-2.23 5,-5 l 0,-26.72266 a 69.135803,70 0 0 0 52.44336,-53.27734 l 27.55664,0 c 2.77,0 5,-2.23 5,-5 l 0,-20 c 0,-2.77 -2.23,-5 -5,-5 l -27.51758,0 a 69.135803,70 0 0 0 -52.48242,-53.24414 l 0,-26.75586 c 0,-2.77 -2.23,-5 -5,-5 l -20,0 z m 10,55 a 44.444443,45 0 0 1 44.44531,45 44.444443,45 0 0 1 -44.44531,45 44.444443,45 0 0 1 -44.44531,-45 44.444443,45 0 0 1 44.44531,-45 z"
       id="ellipse4148"
       inkscape:connector-curvature="0" />
    <g
       id="layer1-0"
       inkscape:label="Layer 1"
       transform="translate(23.255051,-168.63383)">
      <circle
         style="opacity:0.5;fill:#000000;fill-opacity:1;stroke:none;stroke-width:3;stroke-miterlimit:4;stroke-dasharray:none;stroke-opacity:1"
         id="ellipse4137"
         cx="185"
         cy="857.36224"
         r="0" />
    </g>
    <circle
       style="color:#000000;clip-rule:nonzero;display:inline;overflow:visible;visibility:visible;opacity:0.75;isolation:auto;mix-blend-mode:normal;color-interpolation:sRGB;color-interpolation-filters:linearRGB;solid-color:#000000;solid-opacity:1;fill:#50baa6;fill-opacity:1;fill-rule:nonzero;stroke:none;stroke-width:5;stroke-linecap:butt;stroke-linejoin:miter;stroke-miterlimit:4;stroke-dasharray:none;stroke-dashoffset:0;stroke-opacity:1;color-rendering:auto;image-rendering:auto;shape-rendering:auto;text-rendering:auto;enable-background:accumulate"
       id="path4137"
       cx="177.16536"
       cy="875.1969"
       r="6.7949529" />
    <path
       style="color:#000000;clip-rule:nonzero;display:inline;overflow:visible;visibility:visible;opacity:0.75;isolation:auto;mix-blend-mode:normal;color-interpolation:sRGB;color-interpolation-filters:linearRGB;solid-color:#000000;solid-opacity:1;fill:#50baa6;fill-opacity:1;fill-rule:nonzero;stroke:none;stroke-width:5;stroke-linecap:butt;stroke-linejoin:miter;stroke-miterlimit:4;stroke-dasharray:none;stroke-dashoffset:0;stroke-opacity:1;color-rendering:auto;image-rendering:auto;shape-rendering:auto;text-rendering:auto;enable-background:accumulate"
       d="M 177.16602 132.16602 A 44.444443 45 0 0 0 132.7207 177.16602 A 44.444443 45 0 0 0 177.16602 222.16602 A 44.444443 45 0 0 0 221.61133 177.16602 A 44.444443 45 0 0 0 177.16602 132.16602 z M 177.16602 140.57031 A 36.594452 36.594452 0 0 1 213.75977 177.16602 A 36.594452 36.594452 0 0 1 177.16602 213.75977 A 36.594452 36.594452 0 0 1 140.57031 177.16602 A 36.594452 36.594452 0 0 1 177.16602 140.57031 z "
       transform="translate(0,698.03153)"
       id="circle4139" />
  </g>
</svg>
