<?xml version="1.0" encoding="UTF-8" standalone="no"?>
<!-- Created with Inkscape (http://www.inkscape.org/) -->

<svg
   xmlns:dc="http://purl.org/dc/elements/1.1/"
   xmlns:cc="http://creativecommons.org/ns#"
   xmlns:rdf="http://www.w3.org/1999/02/22-rdf-syntax-ns#"
   xmlns:svg="http://www.w3.org/2000/svg"
   xmlns="http://www.w3.org/2000/svg"
   xmlns:sodipodi="http://sodipodi.sourceforge.net/DTD/sodipodi-0.dtd"
   xmlns:inkscape="http://www.inkscape.org/namespaces/inkscape"
   width="10cm"
   height="10cm"
   viewBox="0 0 354.33071 354.3307"
   id="svg2"
   version="1.1"
   inkscape:version="0.91 r13725"
   sodipodi:docname="PlayPause.svg"
   inkscape:export-filename="C:\Users\Raphael\Git\GazeTheWeb\Browse\Client\content\icons\PlayPause.png"
   inkscape:export-xdpi="97.535995"
   inkscape:export-ydpi="97.535995">
  <defs
     id="defs4" />
  <sodipodi:namedview
     id="base"
     pagecolor="#ffffff"
     bordercolor="#666666"
     borderopacity="1.0"
     inkscape:pageopacity="0.0"
     inkscape:pageshadow="2"
     inkscape:zoom="1.4142136"
     inkscape:cx="92.033179"
     inkscape:cy="230.74267"
     inkscape:document-units="px"
     inkscape:current-layer="layer1"
     showgrid="true"
     units="cm"
     inkscape:snap-bbox="true"
     inkscape:bbox-paths="true"
     inkscape:snap-page="true"
     inkscape:bbox-nodes="true"
     inkscape:snap-bbox-edge-midpoints="true"
     inkscape:snap-bbox-midpoints="true"
     inkscape:window-width="1920"
     inkscape:window-height="1027"
     inkscape:window-x="-8"
     inkscape:window-y="-8"
     inkscape:window-maximized="1"
     inkscape:snap-object-midpoints="true"
     inkscape:snap-center="true"
     inkscape:snap-to-guides="false"
     inkscape:object-paths="true"
     inkscape:snap-intersection-paths="true"
     inkscape:object-nodes="true"
     inkscape:snap-smooth-nodes="true"
     inkscape:snap-midpoints="true"
     inkscape:snap-grids="true">
    <inkscape:grid
       type="xygrid"
       id="grid4686" />
  </sodipodi:namedview>
  <metadata
     id="metadata7">
    <rdf:RDF>
      <cc:Work
         rdf:about="">
        <dc:format>image/svg+xml</dc:format>
        <dc:type
           rdf:resource="http://purl.org/dc/dcmitype/StillImage" />
        <dc:title />
      </cc:Work>
    </rdf:RDF>
  </metadata>
  <g
     inkscape:label="Layer 1"
     inkscape:groupmode="layer"
     id="layer1"
     transform="translate(0,-698.03155)">
    <path
       style="opacity:1;fill:#f2f2f2;fill-opacity:1;fill-rule:evenodd;stroke:none;stroke-width:4.38505936;stroke-linecap:butt;stroke-linejoin:miter;stroke-miterlimit:4;stroke-dasharray:none;stroke-opacity:1"
       d="m 61.724804,955.19689 c 1.3349,-0.003 2.64354,-0.40462 3.7855,-1.16227 C 104.4823,928.31798 182,875.196 182,875.196 c 0,0 -77.51771,-53.1202 -116.489696,-78.83684 -1.14196,-0.75765 -2.4506,-1.15954 -3.7855,-1.16227 -4.05187,0 -7.33551,8.04156 -7.33551,8.04156 l 0,143.91688 c 0,0 3.28364,8.04156 7.33551,8.04156 z"
       id="path3335"
       inkscape:connector-curvature="0"
       sodipodi:nodetypes="cccccccc" />
    <g
       id="layer1-5"
       inkscape:label="Layer 1"
       transform="matrix(0.67500002,0,0,0.67500002,126.41338,284.43897)"
       style="fill:#f2f2f2;fill-opacity:1">
      <path
         inkscape:connector-curvature="0"
         id="rect4135"
         d="m 107.16535,775.19689 c -5.54,0 -9.999996,4.46 -9.999996,10 l 0,180 c 0,5.54 4.459996,10 9.999996,10 l 40,0 c 5.54,0 10,-4.46 10,-10 l 0,-180 c 0,-5.54 -4.46,-10 -10,-10 l -40,0 z m 100,0 c -5.54,0 -10,4.46 -10,10 l 0,180 c 0,5.54 4.46,10 10,10 l 40,0 c 5.54,0 10,-4.46 10,-10 l 0,-180 c 0,-5.54 -4.46,-10 -10,-10 l -40,0 z"
         style="opacity:1;fill:#f2f2f2;fill-opacity:1;stroke:none;stroke-width:1;stroke-miterlimit:4;stroke-dasharray:none;stroke-dashoffset:0;stroke-opacity:1" />
    </g>
  </g>
</svg>
